<?xml version="1.0" standalone="no"?>
<!DOCTYPE svg PUBLIC "-//W3C//DTD SVG 20010904//EN"
 "http://www.w3.org/TR/2001/REC-SVG-20010904/DTD/svg10.dtd">
<svg version="1.0" xmlns="http://www.w3.org/2000/svg"
 width="512.000000pt" height="512.000000pt" viewBox="0 0 512.000000 512.000000"
 preserveAspectRatio="xMidYMid meet">
<metadata>
Created by potrace 1.11, written by Peter Selinger 2001-2013
</metadata>
<g transform="translate(0.000000,512.000000) scale(0.100000,-0.100000)"
fill="#000000" stroke="none">
<path d="M2275 5114 c-141 -19 -257 -41 -390 -75 -258 -66 -555 -205 -790
-369 -144 -101 -223 -167 -350 -295 -275 -274 -468 -577 -602 -944 -40 -110
-46 -129 -79 -266 -55 -233 -59 -269 -59 -605 0 -336 4 -372 59 -605 33 -137
39 -156 79 -266 134 -367 327 -670 602 -944 274 -275 577 -468 944 -602 117
-42 147 -51 301 -87 201 -47 234 -50 570 -50 336 0 369 3 570 50 154 36 184
45 301 87 367 134 670 327 944 602 275 274 468 577 602 944 42 117 51 147 87
301 47 201 50 234 50 570 0 336 -3 369 -50 570 -36 154 -45 184 -87 301 -134
367 -327 670 -602 944 -274 275 -577 468 -944 602 -117 42 -147 51 -301 87
-184 44 -232 48 -530 51 -162 2 -308 1 -325 -1z m175 -463 l0 -219 31 -31 c26
-26 38 -31 79 -31 41 0 53 5 79 31 l31 31 0 220 0 220 28 -6 c15 -3 59 -8 97
-11 71 -6 108 -12 250 -41 92 -18 102 -21 250 -70 96 -32 301 -116 313 -129 3
-3 -11 -31 -30 -62 -132 -218 -168 -290 -168 -334 0 -77 71 -131 143 -107 44
15 48 19 113 133 160 280 139 258 196 219 50 -34 51 -35 148 -113 168 -135
343 -323 458 -492 l31 -46 -57 -33 c-31 -19 -82 -48 -112 -66 -203 -118 -203
-117 -217 -158 -26 -77 25 -146 107 -146 34 0 67 15 178 79 76 43 153 88 172
99 19 12 38 22 41 22 16 0 169 -386 169 -427 0 -11 -155 -41 -320 -63 -88 -12
-172 -25 -385 -61 -33 -5 -103 -16 -155 -24 -52 -8 -124 -19 -160 -25 -36 -6
-92 -15 -125 -20 -214 -32 -338 -52 -450 -71 -33 -5 -87 -14 -120 -19 -33 -5
-105 -16 -160 -24 -256 -40 -248 -39 -262 -20 -7 9 -23 29 -35 43 -13 15 -41
49 -63 76 -21 28 -42 52 -45 55 -3 3 -39 46 -80 95 -41 50 -77 92 -80 95 -3 3
-23 28 -45 55 -21 28 -42 52 -45 55 -3 3 -25 30 -50 60 -25 30 -49 60 -55 66
-5 6 -26 30 -46 55 -20 24 -61 73 -90 108 -114 136 -139 167 -166 203 -25 34
-53 50 -53 31 0 -6 59 -168 80 -218 5 -11 34 -87 65 -170 147 -392 295 -782
352 -930 57 -147 106 -204 192 -225 86 -20 147 -7 361 83 19 8 62 24 95 37 33
12 69 26 80 30 11 4 52 20 90 35 100 39 118 46 137 56 10 5 23 9 29 9 6 0 27
7 47 16 21 9 47 20 60 25 12 5 32 13 45 18 12 6 33 13 47 17 14 3 45 15 70 26
67 30 80 35 145 58 33 12 76 28 95 37 48 21 67 28 125 48 28 10 68 26 90 35
22 10 74 30 115 46 41 15 93 35 115 44 22 10 74 30 115 45 41 15 93 36 115 45
55 24 307 119 324 122 10 2 18 -15 27 -57 21 -94 34 -174 44 -255 5 -41 12
-94 16 -117 l6 -43 -220 0 -220 0 -31 -31 c-26 -26 -31 -38 -31 -79 0 -41 5
-53 31 -79 l31 -31 220 0 220 0 -6 -27 c-3 -16 -8 -59 -11 -98 -6 -71 -12
-108 -41 -250 -18 -92 -21 -102 -70 -250 -31 -92 -116 -300 -128 -312 -4 -4
-7 -3 -212 116 -119 68 -148 81 -185 81 -64 -1 -109 -45 -109 -108 0 -57 27
-87 128 -144 178 -100 201 -113 229 -134 l28 -21 -30 -44 c-35 -51 -36 -52
-114 -149 -135 -168 -323 -343 -492 -458 l-46 -31 -33 57 c-18 31 -43 73 -55
92 -11 19 -43 74 -69 121 -51 91 -82 119 -136 119 -66 0 -109 -43 -110 -108 0
-37 13 -67 79 -180 43 -76 88 -153 99 -172 12 -19 22 -38 22 -41 0 -8 -121
-63 -229 -103 -179 -68 -373 -117 -546 -136 -44 -6 -99 -12 -122 -16 l-43 -6
0 220 0 220 -31 31 c-26 26 -38 31 -79 31 -41 0 -53 -5 -79 -31 l-31 -31 0
-219 c0 -205 -1 -220 -17 -215 -10 2 -52 8 -93 11 -100 9 -299 44 -375 66
-146 43 -432 152 -453 174 -3 2 13 35 36 72 146 247 162 279 162 324 -1 66
-43 109 -110 109 -55 0 -85 -28 -143 -129 -117 -207 -129 -226 -142 -240 -18
-18 -44 -1 -205 128 -168 135 -343 323 -458 492 l-31 46 55 33 c30 18 68 40
83 49 16 9 71 40 123 69 100 56 128 87 128 142 0 67 -43 109 -110 110 -46 0
-45 0 -265 -128 -113 -65 -127 -73 -130 -70 -9 9 -76 165 -107 248 -70 188
-106 341 -138 583 -5 43 -10 84 -10 92 0 13 34 15 219 15 l219 0 31 31 c26 26
31 38 31 79 0 41 -5 53 -31 79 l-31 31 -220 0 -220 0 5 23 c3 12 8 54 12 92 8
93 44 297 66 370 44 150 153 432 174 453 2 3 35 -13 72 -36 246 -145 279 -162
324 -162 77 0 131 71 107 143 -15 44 -19 48 -133 113 -280 160 -258 139 -219
196 16 23 34 49 41 58 173 224 322 371 532 526 l74 54 22 -32 c12 -18 33 -53
47 -78 84 -149 140 -246 147 -253 5 -5 26 -14 47 -22 75 -26 144 24 144 104 0
44 -36 116 -168 334 -19 31 -33 59 -31 61 4 4 136 65 184 85 193 82 523 158
733 170 l22 1 0 -219z"/>
</g>
</svg>
